<svg viewBox="0 0 2464 1184"  version="1.1" xmlns="http://www.w3.org/2000/svg">
<g id="qubit_lines">
<path id="qubit_line:0" d="M64,64 L2432,64 " stroke="black"/>
<text dominant-baseline="central" text-anchor="end" font-family="monospace" font-size="12" x="64" y="64">q0</text>
<path id="qubit_line:1" d="M64,128 L2432,128 " stroke="black"/>
<text dominant-baseline="central" text-anchor="end" font-family="monospace" font-size="12" x="64" y="128">q1</text>
<path id="qubit_line:2" d="M64,192 L2432,192 " stroke="black"/>
<text dominant-baseline="central" text-anchor="end" font-family="monospace" font-size="12" x="64" y="192">q2</text>
<path id="qubit_line:3" d="M64,256 L2432,256 " stroke="black"/>
<text dominant-baseline="central" text-anchor="end" font-family="monospace" font-size="12" x="64" y="256">q3</text>
<path id="qubit_line:4" d="M64,320 L2432,320 " stroke="black"/>
<text dominant-baseline="central" text-anchor="end" font-family="monospace" font-size="12" x="64" y="320">q4</text>
<path id="qubit_line:5" d="M64,384 L2432,384 " stroke="black"/>
<text dominant-baseline="central" text-anchor="end" font-family="monospace" font-size="12" x="64" y="384">q5</text>
<path id="qubit_line:6" d="M64,448 L2432,448 " stroke="black"/>
<text dominant-baseline="central" text-anchor="end" font-family="monospace" font-size="12" x="64" y="448">q6</text>
<path id="qubit_line:7" d="M64,512 L2432,512 " stroke="black"/>
<text dominant-baseline="central" text-anchor="end" font-family="monospace" font-size="12" x="64" y="512">q7</text>
<path id="qubit_line:8" d="M64,576 L2432,576 " stroke="black"/>
<text dominant-baseline="central" text-anchor="end" font-family="monospace" font-size="12" x="64" y="576">q8</text>
<path id="qubit_line:9" d="M64,640 L2432,640 " stroke="black"/>
<text dominant-baseline="central" text-anchor="end" font-family="monospace" font-size="12" x="64" y="640">q9</text>
<path id="qubit_line:10" d="M64,704 L2432,704 " stroke="black"/>
<text dominant-baseline="central" text-anchor="end" font-family="monospace" font-size="12" x="64" y="704">q10</text>
<path id="qubit_line:11" d="M64,768 L2432,768 " stroke="black"/>
<text dominant-baseline="central" text-anchor="end" font-family="monospace" font-size="12" x="64" y="768">q11</text>
<path id="qubit_line:12" d="M64,832 L2432,832 " stroke="black"/>
<text dominant-baseline="central" text-anchor="end" font-family="monospace" font-size="12" x="64" y="832">q12</text>
<path id="qubit_line:13" d="M64,896 L2432,896 " stroke="black"/>
<text dominant-baseline="central" text-anchor="end" font-family="monospace" font-size="12" x="64" y="896">q13</text>
<path id="qubit_line:14" d="M64,960 L2432,960 " stroke="black"/>
<text dominant-baseline="central" text-anchor="end" font-family="monospace" font-size="12" x="64" y="960">q14</text>
<path id="qubit_line:15" d="M64,1024 L2432,1024 " stroke="black"/>
<text dominant-baseline="central" text-anchor="end" font-family="monospace" font-size="12" x="64" y="1024">q15</text>
<path id="qubit_line:16" d="M64,1088 L2432,1088 " stroke="black"/>
<text dominant-baseline="central" text-anchor="end" font-family="monospace" font-size="12" x="64" y="1088">q16</text>
</g>
<rect x="80" y="48" width="32" height="32" stroke="black" fill="black"/>
<text dominant-baseline="central" text-anchor="middle" font-family="monospace" font-size="30" x="96" y="64" fill="white">R</text>
<rect x="80" y="112" width="32" height="32" stroke="black" fill="black"/>
<text dominant-baseline="central" text-anchor="middle" font-family="monospace" font-size="30" x="96" y="128" fill="white">R</text>
<rect x="80" y="176" width="32" height="32" stroke="black" fill="black"/>
<text dominant-baseline="central" text-anchor="middle" font-family="monospace" font-size="30" x="96" y="192" fill="white">R</text>
<rect x="80" y="240" width="32" height="32" stroke="black" fill="black"/>
<text dominant-baseline="central" text-anchor="middle" font-family="monospace" font-size="30" x="96" y="256" fill="white">R</text>
<rect x="80" y="304" width="32" height="32" stroke="black" fill="black"/>
<text dominant-baseline="central" text-anchor="middle" font-family="monospace" font-size="30" x="96" y="320" fill="white">R</text>
<rect x="80" y="368" width="32" height="32" stroke="black" fill="black"/>
<text dominant-baseline="central" text-anchor="middle" font-family="monospace" font-size="30" x="96" y="384" fill="white">R</text>
<rect x="80" y="432" width="32" height="32" stroke="black" fill="black"/>
<text dominant-baseline="central" text-anchor="middle" font-family="monospace" font-size="30" x="96" y="448" fill="white">R</text>
<rect x="80" y="496" width="32" height="32" stroke="black" fill="black"/>
<text dominant-baseline="central" text-anchor="middle" font-family="monospace" font-size="30" x="96" y="512" fill="white">R</text>
<rect x="80" y="560" width="32" height="32" stroke="black" fill="black"/>
<text dominant-baseline="central" text-anchor="middle" font-family="monospace" font-size="30" x="96" y="576" fill="white">R</text>
<rect x="80" y="624" width="32" height="32" stroke="black" fill="black"/>
<text dominant-baseline="central" text-anchor="middle" font-family="monospace" font-size="30" x="96" y="640" fill="white">R</text>
<rect x="80" y="688" width="32" height="32" stroke="black" fill="black"/>
<text dominant-baseline="central" text-anchor="middle" font-family="monospace" font-size="30" x="96" y="704" fill="white">R</text>
<rect x="80" y="752" width="32" height="32" stroke="black" fill="black"/>
<text dominant-baseline="central" text-anchor="middle" font-family="monospace" font-size="30" x="96" y="768" fill="white">R</text>
<rect x="80" y="816" width="32" height="32" stroke="black" fill="black"/>
<text dominant-baseline="central" text-anchor="middle" font-family="monospace" font-size="30" x="96" y="832" fill="white">R</text>
<rect x="80" y="880" width="32" height="32" stroke="black" fill="black"/>
<text dominant-baseline="central" text-anchor="middle" font-family="monospace" font-size="30" x="96" y="896" fill="white">R</text>
<rect x="80" y="944" width="32" height="32" stroke="black" fill="black"/>
<text dominant-baseline="central" text-anchor="middle" font-family="monospace" font-size="30" x="96" y="960" fill="white">R</text>
<rect x="80" y="1008" width="32" height="32" stroke="black" fill="black"/>
<text dominant-baseline="central" text-anchor="middle" font-family="monospace" font-size="30" x="96" y="1024" fill="white">R</text>
<rect x="80" y="1072" width="32" height="32" stroke="black" fill="black"/>
<text dominant-baseline="central" text-anchor="middle" font-family="monospace" font-size="30" x="96" y="1088" fill="white">R</text>
<rect x="144" y="624" width="32" height="32" stroke="black" fill="white"/>
<text dominant-baseline="central" text-anchor="middle" font-family="monospace" font-size="30" x="160" y="640">H</text>
<rect x="144" y="688" width="32" height="32" stroke="black" fill="white"/>
<text dominant-baseline="central" text-anchor="middle" font-family="monospace" font-size="30" x="160" y="704">H</text>
<rect x="144" y="752" width="32" height="32" stroke="black" fill="white"/>
<text dominant-baseline="central" text-anchor="middle" font-family="monospace" font-size="30" x="160" y="768">H</text>
<rect x="144" y="816" width="32" height="32" stroke="black" fill="white"/>
<text dominant-baseline="central" text-anchor="middle" font-family="monospace" font-size="30" x="160" y="832">H</text>
<path d="M224,64 L224,640 " stroke="black"/>
<circle cx="224" cy="640" r="12" stroke="none" fill="black"/>
<circle cx="224" cy="64" r="12" stroke="black" fill="white"/>
<path d="M212,64 L236,64 M224,52 L224,76 " stroke="black"/>
<path d="M288,128 L288,640 " stroke="black"/>
<circle cx="288" cy="640" r="12" stroke="none" fill="black"/>
<circle cx="288" cy="128" r="12" stroke="black" fill="white"/>
<path d="M276,128 L300,128 M288,116 L288,140 " stroke="black"/>
<path d="M352,256 L352,640 " stroke="black"/>
<circle cx="352" cy="640" r="12" stroke="none" fill="black"/>
<circle cx="352" cy="256" r="12" stroke="black" fill="white"/>
<path d="M340,256 L364,256 M352,244 L352,268 " stroke="black"/>
<path d="M416,320 L416,640 " stroke="black"/>
<circle cx="416" cy="640" r="12" stroke="none" fill="black"/>
<circle cx="416" cy="320" r="12" stroke="black" fill="white"/>
<path d="M404,320 L428,320 M416,308 L416,332 " stroke="black"/>
<path d="M480,128 L480,704 " stroke="black"/>
<circle cx="480" cy="704" r="12" stroke="none" fill="black"/>
<circle cx="480" cy="128" r="12" stroke="black" fill="white"/>
<path d="M468,128 L492,128 M480,116 L480,140 " stroke="black"/>
<path d="M544,192 L544,704 " stroke="black"/>
<circle cx="544" cy="704" r="12" stroke="none" fill="black"/>
<circle cx="544" cy="192" r="12" stroke="black" fill="white"/>
<path d="M532,192 L556,192 M544,180 L544,204 " stroke="black"/>
<path d="M608,320 L608,704 " stroke="black"/>
<circle cx="608" cy="704" r="12" stroke="none" fill="black"/>
<circle cx="608" cy="320" r="12" stroke="black" fill="white"/>
<path d="M596,320 L620,320 M608,308 L608,332 " stroke="black"/>
<path d="M672,384 L672,704 " stroke="black"/>
<circle cx="672" cy="704" r="12" stroke="none" fill="black"/>
<circle cx="672" cy="384" r="12" stroke="black" fill="white"/>
<path d="M660,384 L684,384 M672,372 L672,396 " stroke="black"/>
<path d="M736,256 L736,768 " stroke="black"/>
<circle cx="736" cy="768" r="12" stroke="none" fill="black"/>
<circle cx="736" cy="256" r="12" stroke="black" fill="white"/>
<path d="M724,256 L748,256 M736,244 L736,268 " stroke="black"/>
<path d="M800,320 L800,768 " stroke="black"/>
<circle cx="800" cy="768" r="12" stroke="none" fill="black"/>
<circle cx="800" cy="320" r="12" stroke="black" fill="white"/>
<path d="M788,320 L812,320 M800,308 L800,332 " stroke="black"/>
<path d="M864,448 L864,768 " stroke="black"/>
<circle cx="864" cy="768" r="12" stroke="none" fill="black"/>
<circle cx="864" cy="448" r="12" stroke="black" fill="white"/>
<path d="M852,448 L876,448 M864,436 L864,460 " stroke="black"/>
<path d="M928,512 L928,768 " stroke="black"/>
<circle cx="928" cy="768" r="12" stroke="none" fill="black"/>
<circle cx="928" cy="512" r="12" stroke="black" fill="white"/>
<path d="M916,512 L940,512 M928,500 L928,524 " stroke="black"/>
<path d="M992,320 L992,832 " stroke="black"/>
<circle cx="992" cy="832" r="12" stroke="none" fill="black"/>
<circle cx="992" cy="320" r="12" stroke="black" fill="white"/>
<path d="M980,320 L1004,320 M992,308 L992,332 " stroke="black"/>
<path d="M1056,384 L1056,832 " stroke="black"/>
<circle cx="1056" cy="832" r="12" stroke="none" fill="black"/>
<circle cx="1056" cy="384" r="12" stroke="black" fill="white"/>
<path d="M1044,384 L1068,384 M1056,372 L1056,396 " stroke="black"/>
<path d="M1120,512 L1120,832 " stroke="black"/>
<circle cx="1120" cy="832" r="12" stroke="none" fill="black"/>
<circle cx="1120" cy="512" r="12" stroke="black" fill="white"/>
<path d="M1108,512 L1132,512 M1120,500 L1120,524 " stroke="black"/>
<path d="M1184,576 L1184,832 " stroke="black"/>
<circle cx="1184" cy="832" r="12" stroke="none" fill="black"/>
<circle cx="1184" cy="576" r="12" stroke="black" fill="white"/>
<path d="M1172,576 L1196,576 M1184,564 L1184,588 " stroke="black"/>
<rect x="1232" y="624" width="32" height="32" stroke="black" fill="white"/>
<text dominant-baseline="central" text-anchor="middle" font-family="monospace" font-size="30" x="1248" y="640">H</text>
<rect x="1232" y="688" width="32" height="32" stroke="black" fill="white"/>
<text dominant-baseline="central" text-anchor="middle" font-family="monospace" font-size="30" x="1248" y="704">H</text>
<rect x="1232" y="752" width="32" height="32" stroke="black" fill="white"/>
<text dominant-baseline="central" text-anchor="middle" font-family="monospace" font-size="30" x="1248" y="768">H</text>
<rect x="1232" y="816" width="32" height="32" stroke="black" fill="white"/>
<text dominant-baseline="central" text-anchor="middle" font-family="monospace" font-size="30" x="1248" y="832">H</text>
<rect x="1296" y="624" width="32" height="32" stroke="black" fill="black"/>
<text dominant-baseline="central" text-anchor="middle" font-family="monospace" font-size="30" x="1312" y="640" fill="white">M</text>
<text text-anchor="middle" font-family="monospace" font-size="8" x="1312" y="620">rec[0]</text>
<rect x="1296" y="688" width="32" height="32" stroke="black" fill="black"/>
<text dominant-baseline="central" text-anchor="middle" font-family="monospace" font-size="30" x="1312" y="704" fill="white">M</text>
<text text-anchor="middle" font-family="monospace" font-size="8" x="1312" y="684">rec[1]</text>
<rect x="1296" y="752" width="32" height="32" stroke="black" fill="black"/>
<text dominant-baseline="central" text-anchor="middle" font-family="monospace" font-size="30" x="1312" y="768" fill="white">M</text>
<text text-anchor="middle" font-family="monospace" font-size="8" x="1312" y="748">rec[2]</text>
<rect x="1296" y="816" width="32" height="32" stroke="black" fill="black"/>
<text dominant-baseline="central" text-anchor="middle" font-family="monospace" font-size="30" x="1312" y="832" fill="white">M</text>
<text text-anchor="middle" font-family="monospace" font-size="8" x="1312" y="812">rec[3]</text>
<path d="M1376,64 L1376,896 " stroke="black"/>
<circle cx="1376" cy="64" r="12" stroke="none" fill="black"/>
<circle cx="1376" cy="896" r="12" stroke="black" fill="white"/>
<path d="M1364,896 L1388,896 M1376,884 L1376,908 " stroke="black"/>
<path d="M1440,128 L1440,896 " stroke="black"/>
<circle cx="1440" cy="128" r="12" stroke="none" fill="black"/>
<circle cx="1440" cy="896" r="12" stroke="black" fill="white"/>
<path d="M1428,896 L1452,896 M1440,884 L1440,908 " stroke="black"/>
<path d="M1504,256 L1504,896 " stroke="black"/>
<circle cx="1504" cy="256" r="12" stroke="none" fill="black"/>
<circle cx="1504" cy="896" r="12" stroke="black" fill="white"/>
<path d="M1492,896 L1516,896 M1504,884 L1504,908 " stroke="black"/>
<path d="M1568,320 L1568,896 " stroke="black"/>
<circle cx="1568" cy="320" r="12" stroke="none" fill="black"/>
<circle cx="1568" cy="896" r="12" stroke="black" fill="white"/>
<path d="M1556,896 L1580,896 M1568,884 L1568,908 " stroke="black"/>
<path d="M1632,128 L1632,960 " stroke="black"/>
<circle cx="1632" cy="128" r="12" stroke="none" fill="black"/>
<circle cx="1632" cy="960" r="12" stroke="black" fill="white"/>
<path d="M1620,960 L1644,960 M1632,948 L1632,972 " stroke="black"/>
<path d="M1696,192 L1696,960 " stroke="black"/>
<circle cx="1696" cy="192" r="12" stroke="none" fill="black"/>
<circle cx="1696" cy="960" r="12" stroke="black" fill="white"/>
<path d="M1684,960 L1708,960 M1696,948 L1696,972 " stroke="black"/>
<path d="M1760,320 L1760,960 " stroke="black"/>
<circle cx="1760" cy="320" r="12" stroke="none" fill="black"/>
<circle cx="1760" cy="960" r="12" stroke="black" fill="white"/>
<path d="M1748,960 L1772,960 M1760,948 L1760,972 " stroke="black"/>
<path d="M1824,384 L1824,960 " stroke="black"/>
<circle cx="1824" cy="384" r="12" stroke="none" fill="black"/>
<circle cx="1824" cy="960" r="12" stroke="black" fill="white"/>
<path d="M1812,960 L1836,960 M1824,948 L1824,972 " stroke="black"/>
<path d="M1888,256 L1888,1024 " stroke="black"/>
<circle cx="1888" cy="256" r="12" stroke="none" fill="black"/>
<circle cx="1888" cy="1024" r="12" stroke="black" fill="white"/>
<path d="M1876,1024 L1900,1024 M1888,1012 L1888,1036 " stroke="black"/>
<path d="M1952,320 L1952,1024 " stroke="black"/>
<circle cx="1952" cy="320" r="12" stroke="none" fill="black"/>
<circle cx="1952" cy="1024" r="12" stroke="black" fill="white"/>
<path d="M1940,1024 L1964,1024 M1952,1012 L1952,1036 " stroke="black"/>
<path d="M2016,448 L2016,1024 " stroke="black"/>
<circle cx="2016" cy="448" r="12" stroke="none" fill="black"/>
<circle cx="2016" cy="1024" r="12" stroke="black" fill="white"/>
<path d="M2004,1024 L2028,1024 M2016,1012 L2016,1036 " stroke="black"/>
<path d="M2080,512 L2080,1024 " stroke="black"/>
<circle cx="2080" cy="512" r="12" stroke="none" fill="black"/>
<circle cx="2080" cy="1024" r="12" stroke="black" fill="white"/>
<path d="M2068,1024 L2092,1024 M2080,1012 L2080,1036 " stroke="black"/>
<path d="M2144,320 L2144,1088 " stroke="black"/>
<circle cx="2144" cy="320" r="12" stroke="none" fill="black"/>
<circle cx="2144" cy="1088" r="12" stroke="black" fill="white"/>
<path d="M2132,1088 L2156,1088 M2144,1076 L2144,1100 " stroke="black"/>
<path d="M2208,384 L2208,1088 " stroke="black"/>
<circle cx="2208" cy="384" r="12" stroke="none" fill="black"/>
<circle cx="2208" cy="1088" r="12" stroke="black" fill="white"/>
<path d="M2196,1088 L2220,1088 M2208,1076 L2208,1100 " stroke="black"/>
<path d="M2272,512 L2272,1088 " stroke="black"/>
<circle cx="2272" cy="512" r="12" stroke="none" fill="black"/>
<circle cx="2272" cy="1088" r="12" stroke="black" fill="white"/>
<path d="M2260,1088 L2284,1088 M2272,1076 L2272,1100 " stroke="black"/>
<path d="M2336,576 L2336,1088 " stroke="black"/>
<circle cx="2336" cy="576" r="12" stroke="none" fill="black"/>
<circle cx="2336" cy="1088" r="12" stroke="black" fill="white"/>
<path d="M2324,1088 L2348,1088 M2336,1076 L2336,1100 " stroke="black"/>
<rect x="2384" y="880" width="32" height="32" stroke="black" fill="black"/>
<text dominant-baseline="central" text-anchor="middle" font-family="monospace" font-size="30" x="2400" y="896" fill="white">M</text>
<text text-anchor="middle" font-family="monospace" font-size="8" x="2400" y="876">rec[4]</text>
<rect x="2384" y="944" width="32" height="32" stroke="black" fill="black"/>
<text dominant-baseline="central" text-anchor="middle" font-family="monospace" font-size="30" x="2400" y="960" fill="white">M</text>
<text text-anchor="middle" font-family="monospace" font-size="8" x="2400" y="940">rec[5]</text>
<rect x="2384" y="1008" width="32" height="32" stroke="black" fill="black"/>
<text dominant-baseline="central" text-anchor="middle" font-family="monospace" font-size="30" x="2400" y="1024" fill="white">M</text>
<text text-anchor="middle" font-family="monospace" font-size="8" x="2400" y="1004">rec[6]</text>
<rect x="2384" y="1072" width="32" height="32" stroke="black" fill="black"/>
<text dominant-baseline="central" text-anchor="middle" font-family="monospace" font-size="30" x="2400" y="1088" fill="white">M</text>
<text text-anchor="middle" font-family="monospace" font-size="8" x="2400" y="1068">rec[7]</text>
</svg>